<mxfile host="65bd71144e">
    <diagram id="9E_Q257AozHkWFELLFtb" name="第 1 页">
        <mxGraphModel dx="2625" dy="1398" grid="1" gridSize="10" guides="1" tooltips="1" connect="1" arrows="1" fold="1" page="1" pageScale="1" pageWidth="3300" pageHeight="2339" math="0" shadow="1">
            <root>
                <mxCell id="0"/>
                <mxCell id="1" parent="0"/>
                <mxCell id="441" value="" style="rounded=0;whiteSpace=wrap;html=1;fillColor=#f8cecc;strokeColor=#b85450;" parent="1" vertex="1">
                    <mxGeometry x="3040" y="280" width="240" height="480" as="geometry"/>
                </mxCell>
                <mxCell id="416" value="" style="rounded=0;whiteSpace=wrap;html=1;strokeWidth=1;fontSize=48;fontColor=#000000;" parent="1" vertex="1">
                    <mxGeometry x="40" y="40" width="2440" height="2760" as="geometry"/>
                </mxCell>
                <mxCell id="413" value="" style="rounded=0;whiteSpace=wrap;html=1;strokeWidth=1;fontSize=48;fillColor=#f9f7ed;strokeColor=#36393d;" parent="1" vertex="1">
                    <mxGeometry x="1440" y="80" width="1000" height="880" as="geometry"/>
                </mxCell>
                <mxCell id="410" value="" style="rounded=0;whiteSpace=wrap;html=1;strokeWidth=1;fontSize=12;fillColor=#ffcc99;strokeColor=#36393d;" parent="1" vertex="1">
                    <mxGeometry x="80" y="1000" width="2360" height="1760" as="geometry"/>
                </mxCell>
                <mxCell id="408" value="" style="rounded=0;whiteSpace=wrap;html=1;strokeWidth=1;fontSize=12;fontColor=#000000;" parent="1" vertex="1">
                    <mxGeometry x="1240" y="1120" width="1160" height="1600" as="geometry"/>
                </mxCell>
                <mxCell id="407" value="" style="rounded=0;whiteSpace=wrap;html=1;strokeWidth=1;fontSize=12;fontColor=#000000;" parent="1" vertex="1">
                    <mxGeometry x="680" y="1120" width="520" height="1000" as="geometry"/>
                </mxCell>
                <mxCell id="406" value="" style="rounded=0;whiteSpace=wrap;html=1;strokeWidth=1;fontSize=12;fontColor=#000000;" parent="1" vertex="1">
                    <mxGeometry x="120" y="1120" width="520" height="1000" as="geometry"/>
                </mxCell>
                <mxCell id="383" value="" style="rounded=0;whiteSpace=wrap;html=1;strokeWidth=1;fontSize=12;fillColor=#fff2cc;strokeColor=#d6b656;" parent="1" vertex="1">
                    <mxGeometry x="2120" y="200" width="280" height="600" as="geometry"/>
                </mxCell>
                <mxCell id="369" value="" style="rounded=0;whiteSpace=wrap;html=1;strokeWidth=1;fontSize=12;fillColor=#ffe6cc;strokeColor=#d79b00;" parent="1" vertex="1">
                    <mxGeometry x="1800" y="200" width="280" height="440" as="geometry"/>
                </mxCell>
                <mxCell id="356" value="" style="rounded=0;whiteSpace=wrap;html=1;strokeWidth=1;fontSize=12;fillColor=#d5e8d4;strokeColor=#82b366;" parent="1" vertex="1">
                    <mxGeometry x="1480" y="200" width="280" height="720" as="geometry"/>
                </mxCell>
                <mxCell id="40" value="" style="rounded=0;whiteSpace=wrap;html=1;fillColor=#eeeeee;strokeColor=#36393d;" parent="1" vertex="1">
                    <mxGeometry x="1120" y="80" width="280" height="880" as="geometry"/>
                </mxCell>
                <mxCell id="21" value="" style="edgeStyle=none;html=1;" parent="1" source="19" target="20" edge="1">
                    <mxGeometry relative="1" as="geometry"/>
                </mxCell>
                <mxCell id="19" value="设备初始化" style="rounded=1;whiteSpace=wrap;html=1;" parent="1" vertex="1">
                    <mxGeometry x="1200" y="160" width="120" height="60" as="geometry"/>
                </mxCell>
                <mxCell id="23" value="" style="edgeStyle=none;html=1;" parent="1" source="20" target="22" edge="1">
                    <mxGeometry relative="1" as="geometry"/>
                </mxCell>
                <mxCell id="20" value="向OpenMV发送获取信息" style="whiteSpace=wrap;html=1;rounded=1;" parent="1" vertex="1">
                    <mxGeometry x="1200" y="300" width="120" height="60" as="geometry"/>
                </mxCell>
                <mxCell id="25" value="" style="edgeStyle=none;html=1;" parent="1" source="22" edge="1">
                    <mxGeometry relative="1" as="geometry">
                        <mxPoint x="1260" y="400" as="targetPoint"/>
                        <Array as="points">
                            <mxPoint x="1370" y="470"/>
                            <mxPoint x="1370" y="400"/>
                        </Array>
                    </mxGeometry>
                </mxCell>
                <mxCell id="29" value="" style="edgeStyle=none;html=1;" parent="1" source="22" target="28" edge="1">
                    <mxGeometry relative="1" as="geometry"/>
                </mxCell>
                <mxCell id="22" value="接收图像信息" style="whiteSpace=wrap;html=1;rounded=1;" parent="1" vertex="1">
                    <mxGeometry x="1200" y="440" width="120" height="60" as="geometry"/>
                </mxCell>
                <mxCell id="27" value="N" style="text;html=1;strokeColor=none;fillColor=none;align=center;verticalAlign=middle;whiteSpace=wrap;rounded=0;" parent="1" vertex="1">
                    <mxGeometry x="1330" y="420" width="60" height="30" as="geometry"/>
                </mxCell>
                <mxCell id="32" value="" style="edgeStyle=none;html=1;" parent="1" source="28" target="31" edge="1">
                    <mxGeometry relative="1" as="geometry"/>
                </mxCell>
                <mxCell id="28" value="向OpenMV发送终止信息" style="whiteSpace=wrap;html=1;rounded=1;" parent="1" vertex="1">
                    <mxGeometry x="1200" y="580" width="120" height="60" as="geometry"/>
                </mxCell>
                <mxCell id="30" value="Y" style="text;html=1;strokeColor=none;fillColor=none;align=center;verticalAlign=middle;whiteSpace=wrap;rounded=0;" parent="1" vertex="1">
                    <mxGeometry x="1240" y="530" width="60" height="30" as="geometry"/>
                </mxCell>
                <mxCell id="34" value="" style="edgeStyle=none;html=1;" parent="1" source="31" target="33" edge="1">
                    <mxGeometry relative="1" as="geometry"/>
                </mxCell>
                <mxCell id="36" value="" style="edgeStyle=none;html=1;exitX=1;exitY=0.5;exitDx=0;exitDy=0;" parent="1" source="31" edge="1">
                    <mxGeometry relative="1" as="geometry">
                        <mxPoint x="1360" y="780" as="sourcePoint"/>
                        <mxPoint x="1260" y="680" as="targetPoint"/>
                        <Array as="points">
                            <mxPoint x="1370" y="750"/>
                            <mxPoint x="1370" y="680"/>
                        </Array>
                    </mxGeometry>
                </mxCell>
                <mxCell id="31" value="接收红外信息" style="whiteSpace=wrap;html=1;rounded=1;" parent="1" vertex="1">
                    <mxGeometry x="1200" y="720" width="120" height="60" as="geometry"/>
                </mxCell>
                <mxCell id="33" value="任务N" style="whiteSpace=wrap;html=1;rounded=1;fillColor=#ffcc99;strokeColor=#36393d;" parent="1" vertex="1">
                    <mxGeometry x="1200" y="860" width="120" height="60" as="geometry"/>
                </mxCell>
                <mxCell id="37" value="N" style="text;html=1;strokeColor=none;fillColor=none;align=center;verticalAlign=middle;whiteSpace=wrap;rounded=0;" parent="1" vertex="1">
                    <mxGeometry x="1330" y="705" width="60" height="30" as="geometry"/>
                </mxCell>
                <mxCell id="39" value="Y" style="text;html=1;strokeColor=none;fillColor=none;align=center;verticalAlign=middle;whiteSpace=wrap;rounded=0;" parent="1" vertex="1">
                    <mxGeometry x="1240" y="810" width="60" height="30" as="geometry"/>
                </mxCell>
                <mxCell id="50" value="" style="edgeStyle=none;html=1;fontSize=24;fontColor=#000000;entryX=0.5;entryY=0;entryDx=0;entryDy=0;exitX=0.5;exitY=1;exitDx=0;exitDy=0;" parent="1" source="48" target="51" edge="1">
                    <mxGeometry relative="1" as="geometry">
                        <mxPoint x="379.9999999999998" y="1340" as="targetPoint"/>
                        <Array as="points">
                            <mxPoint x="380" y="1300"/>
                            <mxPoint x="220" y="1300"/>
                        </Array>
                    </mxGeometry>
                </mxCell>
                <mxCell id="48" value="循迹前进" style="rounded=1;whiteSpace=wrap;html=1;strokeWidth=1;fontSize=12;fontColor=#000000;" parent="1" vertex="1">
                    <mxGeometry x="320" y="1200" width="120" height="60" as="geometry"/>
                </mxCell>
                <mxCell id="60" value="" style="edgeStyle=none;html=1;fontSize=12;fontColor=#000000;" parent="1" source="51" target="59" edge="1">
                    <mxGeometry relative="1" as="geometry"/>
                </mxCell>
                <mxCell id="51" value="左转" style="rounded=1;whiteSpace=wrap;html=1;strokeWidth=1;fontSize=12;fontColor=#000000;" parent="1" vertex="1">
                    <mxGeometry x="160" y="1340" width="120" height="60" as="geometry"/>
                </mxCell>
                <mxCell id="99" value="" style="edgeStyle=none;html=1;fontSize=12;fontColor=#000000;" parent="1" source="52" target="88" edge="1">
                    <mxGeometry relative="1" as="geometry"/>
                </mxCell>
                <mxCell id="52" value="右转" style="rounded=1;whiteSpace=wrap;html=1;strokeWidth=1;fontSize=12;fontColor=#000000;" parent="1" vertex="1">
                    <mxGeometry x="477" y="1340" width="120" height="60" as="geometry"/>
                </mxCell>
                <mxCell id="54" value="" style="endArrow=classic;html=1;fontSize=24;fontColor=#000000;entryX=0.5;entryY=0;entryDx=0;entryDy=0;" parent="1" target="52" edge="1">
                    <mxGeometry width="50" height="50" relative="1" as="geometry">
                        <mxPoint x="380" y="1300" as="sourcePoint"/>
                        <mxPoint x="380" y="1300" as="targetPoint"/>
                        <Array as="points">
                            <mxPoint x="537" y="1300"/>
                        </Array>
                    </mxGeometry>
                </mxCell>
                <mxCell id="55" value="N=1" style="text;html=1;strokeColor=none;fillColor=none;align=center;verticalAlign=middle;whiteSpace=wrap;rounded=0;strokeWidth=1;fontSize=12;fontColor=#000000;" parent="1" vertex="1">
                    <mxGeometry x="260" y="1280" width="60" height="30" as="geometry"/>
                </mxCell>
                <mxCell id="58" value="N=2" style="text;html=1;strokeColor=none;fillColor=none;align=center;verticalAlign=middle;whiteSpace=wrap;rounded=0;strokeWidth=1;fontSize=12;fontColor=#000000;" parent="1" vertex="1">
                    <mxGeometry x="440" y="1280" width="60" height="30" as="geometry"/>
                </mxCell>
                <mxCell id="62" value="" style="edgeStyle=none;html=1;fontSize=12;fontColor=#000000;" parent="1" source="59" target="61" edge="1">
                    <mxGeometry relative="1" as="geometry"/>
                </mxCell>
                <mxCell id="59" value="循迹前进" style="whiteSpace=wrap;html=1;fontColor=#000000;rounded=1;strokeWidth=1;" parent="1" vertex="1">
                    <mxGeometry x="160" y="1480" width="120" height="60" as="geometry"/>
                </mxCell>
                <mxCell id="64" value="" style="edgeStyle=none;html=1;fontSize=12;fontColor=#000000;" parent="1" source="61" edge="1">
                    <mxGeometry relative="1" as="geometry">
                        <mxPoint x="220" y="1760" as="targetPoint"/>
                    </mxGeometry>
                </mxCell>
                <mxCell id="61" value="到1号病房停止" style="whiteSpace=wrap;html=1;fontColor=#000000;rounded=1;strokeWidth=1;" parent="1" vertex="1">
                    <mxGeometry x="160" y="1620" width="120" height="60" as="geometry"/>
                </mxCell>
                <mxCell id="78" value="" style="edgeStyle=none;html=1;fontSize=12;fontColor=#000000;exitX=0.5;exitY=1;exitDx=0;exitDy=0;" parent="1" source="75" edge="1">
                    <mxGeometry relative="1" as="geometry">
                        <mxPoint x="220" y="2040" as="targetPoint"/>
                    </mxGeometry>
                </mxCell>
                <mxCell id="75" value="右转" style="whiteSpace=wrap;html=1;fontColor=#000000;rounded=1;strokeWidth=1;" parent="1" vertex="1">
                    <mxGeometry x="160" y="1900" width="120" height="60" as="geometry"/>
                </mxCell>
                <mxCell id="77" value="药房检测函数" style="whiteSpace=wrap;html=1;rounded=1;strokeWidth=1;fillColor=#ffe6cc;strokeColor=#d79b00;" parent="1" vertex="1">
                    <mxGeometry x="160" y="2040" width="440" height="60" as="geometry"/>
                </mxCell>
                <mxCell id="87" value="" style="edgeStyle=none;html=1;fontSize=12;fontColor=#000000;" parent="1" target="75" edge="1">
                    <mxGeometry relative="1" as="geometry">
                        <mxPoint x="220" y="1820" as="sourcePoint"/>
                    </mxGeometry>
                </mxCell>
                <mxCell id="100" value="" style="edgeStyle=none;html=1;fontSize=12;fontColor=#000000;" parent="1" source="88" target="89" edge="1">
                    <mxGeometry relative="1" as="geometry"/>
                </mxCell>
                <mxCell id="88" value="循迹前进" style="whiteSpace=wrap;html=1;fontColor=#000000;rounded=1;strokeWidth=1;" parent="1" vertex="1">
                    <mxGeometry x="477" y="1480" width="120" height="60" as="geometry"/>
                </mxCell>
                <mxCell id="101" value="" style="edgeStyle=none;html=1;fontSize=12;fontColor=#000000;" parent="1" source="89" edge="1">
                    <mxGeometry relative="1" as="geometry">
                        <mxPoint x="537" y="1760" as="targetPoint"/>
                    </mxGeometry>
                </mxCell>
                <mxCell id="89" value="到2号药房停止" style="whiteSpace=wrap;html=1;fontColor=#000000;rounded=1;strokeWidth=1;" parent="1" vertex="1">
                    <mxGeometry x="477" y="1620" width="120" height="60" as="geometry"/>
                </mxCell>
                <mxCell id="109" value="" style="edgeStyle=none;html=1;fontSize=12;fontColor=#000000;" parent="1" target="95" edge="1">
                    <mxGeometry relative="1" as="geometry">
                        <mxPoint x="537" y="1820" as="sourcePoint"/>
                    </mxGeometry>
                </mxCell>
                <mxCell id="110" value="" style="edgeStyle=none;html=1;fontSize=12;fontColor=#000000;" parent="1" source="95" edge="1">
                    <mxGeometry relative="1" as="geometry">
                        <mxPoint x="537" y="2040" as="targetPoint"/>
                    </mxGeometry>
                </mxCell>
                <mxCell id="95" value="左转" style="whiteSpace=wrap;html=1;fontColor=#000000;rounded=1;strokeWidth=1;" parent="1" vertex="1">
                    <mxGeometry x="477" y="1900" width="120" height="60" as="geometry"/>
                </mxCell>
                <mxCell id="113" value="任务N（N=1/2）" style="text;html=1;strokeColor=none;fillColor=none;align=center;verticalAlign=middle;whiteSpace=wrap;rounded=0;strokeWidth=1;fontSize=24;fontColor=#000000;" parent="1" vertex="1">
                    <mxGeometry x="120" y="1120" width="520" height="80" as="geometry"/>
                </mxCell>
                <mxCell id="115" value="数字检测函数" style="rounded=1;whiteSpace=wrap;html=1;strokeWidth=1;fontSize=12;fillColor=#fff2cc;strokeColor=#d6b656;" parent="1" vertex="1">
                    <mxGeometry x="880" y="1200" width="120" height="60" as="geometry"/>
                </mxCell>
                <mxCell id="127" value="" style="edgeStyle=none;html=1;fontSize=24;fontColor=#000000;entryX=0.5;entryY=0;entryDx=0;entryDy=0;exitX=0.5;exitY=1;exitDx=0;exitDy=0;" parent="1" edge="1">
                    <mxGeometry relative="1" as="geometry">
                        <mxPoint x="940" y="1260" as="sourcePoint"/>
                        <mxPoint x="790" y="1340" as="targetPoint"/>
                        <Array as="points">
                            <mxPoint x="940" y="1300"/>
                            <mxPoint x="790" y="1300"/>
                        </Array>
                    </mxGeometry>
                </mxCell>
                <mxCell id="129" value="" style="edgeStyle=none;html=1;fontSize=24;fontColor=#000000;entryX=0.5;entryY=0;entryDx=0;entryDy=0;" parent="1" edge="1">
                    <mxGeometry relative="1" as="geometry">
                        <mxPoint x="940" y="1300" as="sourcePoint"/>
                        <mxPoint x="1100" y="1340" as="targetPoint"/>
                        <Array as="points">
                            <mxPoint x="1100" y="1300"/>
                        </Array>
                    </mxGeometry>
                </mxCell>
                <mxCell id="131" value="" style="edgeStyle=none;html=1;fontSize=12;fontColor=#000000;" parent="1" source="132" target="134" edge="1">
                    <mxGeometry relative="1" as="geometry"/>
                </mxCell>
                <mxCell id="132" value="左转" style="rounded=1;whiteSpace=wrap;html=1;strokeWidth=1;fontSize=12;fontColor=#000000;" parent="1" vertex="1">
                    <mxGeometry x="720" y="1340" width="120" height="60" as="geometry"/>
                </mxCell>
                <mxCell id="133" value="" style="edgeStyle=none;html=1;fontSize=12;fontColor=#000000;" parent="1" source="134" target="136" edge="1">
                    <mxGeometry relative="1" as="geometry"/>
                </mxCell>
                <mxCell id="134" value="循迹前进" style="whiteSpace=wrap;html=1;fontColor=#000000;rounded=1;strokeWidth=1;" parent="1" vertex="1">
                    <mxGeometry x="720" y="1480" width="120" height="60" as="geometry"/>
                </mxCell>
                <mxCell id="135" value="" style="edgeStyle=none;html=1;fontSize=12;fontColor=#000000;" parent="1" source="136" edge="1">
                    <mxGeometry relative="1" as="geometry">
                        <mxPoint x="780" y="1760" as="targetPoint"/>
                    </mxGeometry>
                </mxCell>
                <mxCell id="136" value="到中部左侧病房停止" style="whiteSpace=wrap;html=1;fontColor=#000000;rounded=1;strokeWidth=1;" parent="1" vertex="1">
                    <mxGeometry x="720" y="1620" width="120" height="60" as="geometry"/>
                </mxCell>
                <mxCell id="145" value="" style="edgeStyle=none;html=1;fontSize=12;fontColor=#000000;" parent="1" source="146" edge="1">
                    <mxGeometry relative="1" as="geometry">
                        <mxPoint x="780" y="2040" as="targetPoint"/>
                    </mxGeometry>
                </mxCell>
                <mxCell id="146" value="右转" style="whiteSpace=wrap;html=1;fontColor=#000000;rounded=1;strokeWidth=1;" parent="1" vertex="1">
                    <mxGeometry x="720" y="1900" width="120" height="60" as="geometry"/>
                </mxCell>
                <mxCell id="154" value="" style="edgeStyle=none;html=1;fontSize=12;fontColor=#000000;" parent="1" target="146" edge="1">
                    <mxGeometry relative="1" as="geometry">
                        <mxPoint x="780" y="1820" as="sourcePoint"/>
                    </mxGeometry>
                </mxCell>
                <mxCell id="157" value="" style="edgeStyle=none;html=1;fontSize=12;fontColor=#000000;" parent="1" source="158" target="160" edge="1">
                    <mxGeometry relative="1" as="geometry"/>
                </mxCell>
                <mxCell id="158" value="右转" style="rounded=1;whiteSpace=wrap;html=1;strokeWidth=1;fontSize=12;fontColor=#000000;" parent="1" vertex="1">
                    <mxGeometry x="1040" y="1340" width="120" height="60" as="geometry"/>
                </mxCell>
                <mxCell id="159" value="" style="edgeStyle=none;html=1;fontSize=12;fontColor=#000000;" parent="1" source="160" target="162" edge="1">
                    <mxGeometry relative="1" as="geometry"/>
                </mxCell>
                <mxCell id="160" value="循迹前进" style="whiteSpace=wrap;html=1;fontColor=#000000;rounded=1;strokeWidth=1;" parent="1" vertex="1">
                    <mxGeometry x="1040" y="1480" width="120" height="60" as="geometry"/>
                </mxCell>
                <mxCell id="161" value="" style="edgeStyle=none;html=1;fontSize=12;fontColor=#000000;" parent="1" source="162" edge="1">
                    <mxGeometry relative="1" as="geometry">
                        <mxPoint x="1100" y="1760" as="targetPoint"/>
                    </mxGeometry>
                </mxCell>
                <mxCell id="162" value="到中部右侧病房停止" style="whiteSpace=wrap;html=1;fontColor=#000000;rounded=1;strokeWidth=1;" parent="1" vertex="1">
                    <mxGeometry x="1040" y="1620" width="120" height="60" as="geometry"/>
                </mxCell>
                <mxCell id="171" value="" style="edgeStyle=none;html=1;fontSize=12;fontColor=#000000;" parent="1" source="172" edge="1">
                    <mxGeometry relative="1" as="geometry">
                        <mxPoint x="1100" y="2040" as="targetPoint"/>
                    </mxGeometry>
                </mxCell>
                <mxCell id="172" value="左转" style="whiteSpace=wrap;html=1;fontColor=#000000;rounded=1;strokeWidth=1;" parent="1" vertex="1">
                    <mxGeometry x="1040" y="1900" width="120" height="60" as="geometry"/>
                </mxCell>
                <mxCell id="180" value="" style="edgeStyle=none;html=1;fontSize=12;fontColor=#000000;" parent="1" target="172" edge="1">
                    <mxGeometry relative="1" as="geometry">
                        <mxPoint x="1100" y="1820" as="sourcePoint"/>
                    </mxGeometry>
                </mxCell>
                <mxCell id="185" value="任务N（N=3/4）" style="text;html=1;strokeColor=none;fillColor=none;align=center;verticalAlign=middle;whiteSpace=wrap;rounded=0;strokeWidth=1;fontSize=24;fontColor=#000000;" parent="1" vertex="1">
                    <mxGeometry x="680" y="1120" width="520" height="80" as="geometry"/>
                </mxCell>
                <mxCell id="211" value="" style="edgeStyle=none;html=1;fontSize=12;fontColor=#000000;" parent="1" source="200" edge="1">
                    <mxGeometry relative="1" as="geometry">
                        <mxPoint x="1499.9999999999995" y="1480" as="targetPoint"/>
                    </mxGeometry>
                </mxCell>
                <mxCell id="200" value="左转" style="rounded=1;whiteSpace=wrap;html=1;strokeWidth=1;fontSize=12;fontColor=#000000;" parent="1" vertex="1">
                    <mxGeometry x="1440" y="1340" width="120" height="60" as="geometry"/>
                </mxCell>
                <mxCell id="238" value="" style="edgeStyle=none;html=1;fontSize=12;fontColor=#000000;entryX=0.5;entryY=0;entryDx=0;entryDy=0;exitX=0.5;exitY=1;exitDx=0;exitDy=0;" parent="1" target="213" edge="1">
                    <mxGeometry relative="1" as="geometry">
                        <mxPoint x="1499.9999999999995" y="1540" as="sourcePoint"/>
                        <mxPoint x="1531.428571428571" y="1620" as="targetPoint"/>
                        <Array as="points">
                            <mxPoint x="1500" y="1580"/>
                            <mxPoint x="1340" y="1580"/>
                        </Array>
                    </mxGeometry>
                </mxCell>
                <mxCell id="274" value="" style="edgeStyle=none;html=1;fontSize=12;fontColor=#000000;entryX=0.5;entryY=0;entryDx=0;entryDy=0;" parent="1" target="246" edge="1">
                    <mxGeometry relative="1" as="geometry">
                        <mxPoint x="1500" y="1580" as="sourcePoint"/>
                        <mxPoint x="1500" y="1620" as="targetPoint"/>
                        <Array as="points">
                            <mxPoint x="1660" y="1580"/>
                        </Array>
                    </mxGeometry>
                </mxCell>
                <mxCell id="212" value="" style="edgeStyle=none;html=1;fontSize=12;fontColor=#000000;" parent="1" source="213" target="215" edge="1">
                    <mxGeometry relative="1" as="geometry"/>
                </mxCell>
                <mxCell id="213" value="左转" style="rounded=1;whiteSpace=wrap;html=1;strokeWidth=1;fontSize=12;fontColor=#000000;" parent="1" vertex="1">
                    <mxGeometry x="1280" y="1620" width="120" height="60" as="geometry"/>
                </mxCell>
                <mxCell id="214" value="" style="edgeStyle=none;html=1;fontSize=12;fontColor=#000000;" parent="1" source="215" target="217" edge="1">
                    <mxGeometry relative="1" as="geometry"/>
                </mxCell>
                <mxCell id="215" value="循迹前进" style="whiteSpace=wrap;html=1;fontColor=#000000;rounded=1;strokeWidth=1;" parent="1" vertex="1">
                    <mxGeometry x="1280" y="1760" width="120" height="60" as="geometry"/>
                </mxCell>
                <mxCell id="216" value="" style="edgeStyle=none;html=1;fontSize=12;fontColor=#000000;" parent="1" source="217" edge="1">
                    <mxGeometry relative="1" as="geometry">
                        <mxPoint x="1340" y="2040" as="targetPoint"/>
                    </mxGeometry>
                </mxCell>
                <mxCell id="217" value="到远部左下病房停止" style="whiteSpace=wrap;html=1;fontColor=#000000;rounded=1;strokeWidth=1;" parent="1" vertex="1">
                    <mxGeometry x="1280" y="1900" width="120" height="60" as="geometry"/>
                </mxCell>
                <mxCell id="225" value="" style="edgeStyle=none;html=1;fontSize=12;fontColor=#000000;" parent="1" source="226" target="228" edge="1">
                    <mxGeometry relative="1" as="geometry"/>
                </mxCell>
                <mxCell id="226" value="右转" style="whiteSpace=wrap;html=1;fontColor=#000000;rounded=1;strokeWidth=1;" parent="1" vertex="1">
                    <mxGeometry x="1280" y="2180" width="120" height="60" as="geometry"/>
                </mxCell>
                <mxCell id="242" value="" style="edgeStyle=none;html=1;fontSize=12;fontColor=#000000;" parent="1" source="228" target="240" edge="1">
                    <mxGeometry relative="1" as="geometry"/>
                </mxCell>
                <mxCell id="228" value="循迹前进" style="whiteSpace=wrap;html=1;fontColor=#000000;rounded=1;strokeWidth=1;" parent="1" vertex="1">
                    <mxGeometry x="1280" y="2320" width="120" height="60" as="geometry"/>
                </mxCell>
                <mxCell id="234" value="" style="edgeStyle=none;html=1;fontSize=12;fontColor=#000000;" parent="1" target="226" edge="1">
                    <mxGeometry relative="1" as="geometry">
                        <mxPoint x="1340" y="2100" as="sourcePoint"/>
                    </mxGeometry>
                </mxCell>
                <mxCell id="239" value="" style="edgeStyle=none;html=1;fontSize=12;fontColor=#000000;" parent="1" source="240" edge="1">
                    <mxGeometry relative="1" as="geometry">
                        <mxPoint x="1340" y="2600" as="targetPoint"/>
                    </mxGeometry>
                </mxCell>
                <mxCell id="240" value="右转" style="whiteSpace=wrap;html=1;fontColor=#000000;rounded=1;strokeWidth=1;" parent="1" vertex="1">
                    <mxGeometry x="1280" y="2460" width="120" height="60" as="geometry"/>
                </mxCell>
                <mxCell id="245" value="" style="edgeStyle=none;html=1;fontSize=12;fontColor=#000000;" parent="1" source="246" target="248" edge="1">
                    <mxGeometry relative="1" as="geometry"/>
                </mxCell>
                <mxCell id="246" value="右转" style="rounded=1;whiteSpace=wrap;html=1;strokeWidth=1;fontSize=12;fontColor=#000000;" parent="1" vertex="1">
                    <mxGeometry x="1600" y="1620" width="120" height="60" as="geometry"/>
                </mxCell>
                <mxCell id="247" value="" style="edgeStyle=none;html=1;fontSize=12;fontColor=#000000;" parent="1" source="248" target="250" edge="1">
                    <mxGeometry relative="1" as="geometry"/>
                </mxCell>
                <mxCell id="248" value="循迹前进" style="whiteSpace=wrap;html=1;fontColor=#000000;rounded=1;strokeWidth=1;" parent="1" vertex="1">
                    <mxGeometry x="1600" y="1760" width="120" height="60" as="geometry"/>
                </mxCell>
                <mxCell id="249" value="" style="edgeStyle=none;html=1;fontSize=12;fontColor=#000000;" parent="1" source="250" edge="1">
                    <mxGeometry relative="1" as="geometry">
                        <mxPoint x="1660" y="2040" as="targetPoint"/>
                    </mxGeometry>
                </mxCell>
                <mxCell id="250" value="到远部左上病房停止" style="whiteSpace=wrap;html=1;fontColor=#000000;rounded=1;strokeWidth=1;" parent="1" vertex="1">
                    <mxGeometry x="1600" y="1900" width="120" height="60" as="geometry"/>
                </mxCell>
                <mxCell id="258" value="" style="edgeStyle=none;html=1;fontSize=12;fontColor=#000000;" parent="1" source="259" target="261" edge="1">
                    <mxGeometry relative="1" as="geometry"/>
                </mxCell>
                <mxCell id="259" value="左转" style="whiteSpace=wrap;html=1;fontColor=#000000;rounded=1;strokeWidth=1;" parent="1" vertex="1">
                    <mxGeometry x="1600" y="2180" width="120" height="60" as="geometry"/>
                </mxCell>
                <mxCell id="260" value="" style="edgeStyle=none;html=1;fontSize=12;fontColor=#000000;" parent="1" source="261" target="270" edge="1">
                    <mxGeometry relative="1" as="geometry"/>
                </mxCell>
                <mxCell id="261" value="循迹前进" style="whiteSpace=wrap;html=1;fontColor=#000000;rounded=1;strokeWidth=1;" parent="1" vertex="1">
                    <mxGeometry x="1600" y="2320" width="120" height="60" as="geometry"/>
                </mxCell>
                <mxCell id="267" value="" style="edgeStyle=none;html=1;fontSize=12;fontColor=#000000;" parent="1" target="259" edge="1">
                    <mxGeometry relative="1" as="geometry">
                        <mxPoint x="1660" y="2100" as="sourcePoint"/>
                    </mxGeometry>
                </mxCell>
                <mxCell id="269" value="" style="edgeStyle=none;html=1;fontSize=12;fontColor=#000000;" parent="1" source="270" edge="1">
                    <mxGeometry relative="1" as="geometry">
                        <mxPoint x="1660" y="2600" as="targetPoint"/>
                    </mxGeometry>
                </mxCell>
                <mxCell id="270" value="右转" style="whiteSpace=wrap;html=1;fontColor=#000000;rounded=1;strokeWidth=1;" parent="1" vertex="1">
                    <mxGeometry x="1600" y="2460" width="120" height="60" as="geometry"/>
                </mxCell>
                <mxCell id="275" value="" style="edgeStyle=none;html=1;fontSize=12;fontColor=#000000;" parent="1" source="276" edge="1">
                    <mxGeometry relative="1" as="geometry">
                        <mxPoint x="2140" y="1480" as="targetPoint"/>
                    </mxGeometry>
                </mxCell>
                <mxCell id="276" value="右转" style="rounded=1;whiteSpace=wrap;html=1;strokeWidth=1;fontSize=12;fontColor=#000000;" parent="1" vertex="1">
                    <mxGeometry x="2080" y="1340" width="120" height="60" as="geometry"/>
                </mxCell>
                <mxCell id="286" value="" style="edgeStyle=none;html=1;fontSize=12;fontColor=#000000;entryX=0.5;entryY=0;entryDx=0;entryDy=0;exitX=0.5;exitY=1;exitDx=0;exitDy=0;" parent="1" target="290" edge="1">
                    <mxGeometry relative="1" as="geometry">
                        <mxPoint x="2140" y="1540" as="sourcePoint"/>
                        <mxPoint x="2171.428571428571" y="1620" as="targetPoint"/>
                        <Array as="points">
                            <mxPoint x="2140" y="1580"/>
                            <mxPoint x="1980" y="1580"/>
                        </Array>
                    </mxGeometry>
                </mxCell>
                <mxCell id="287" value="" style="edgeStyle=none;html=1;fontSize=12;fontColor=#000000;entryX=0.5;entryY=0;entryDx=0;entryDy=0;" parent="1" target="318" edge="1">
                    <mxGeometry relative="1" as="geometry">
                        <mxPoint x="2140" y="1580" as="sourcePoint"/>
                        <mxPoint x="2140" y="1620" as="targetPoint"/>
                        <Array as="points">
                            <mxPoint x="2300" y="1580"/>
                        </Array>
                    </mxGeometry>
                </mxCell>
                <mxCell id="289" value="" style="edgeStyle=none;html=1;fontSize=12;fontColor=#000000;" parent="1" source="290" target="292" edge="1">
                    <mxGeometry relative="1" as="geometry"/>
                </mxCell>
                <mxCell id="290" value="左转" style="rounded=1;whiteSpace=wrap;html=1;strokeWidth=1;fontSize=12;fontColor=#000000;" parent="1" vertex="1">
                    <mxGeometry x="1920" y="1620" width="120" height="60" as="geometry"/>
                </mxCell>
                <mxCell id="291" value="" style="edgeStyle=none;html=1;fontSize=12;fontColor=#000000;" parent="1" source="292" target="294" edge="1">
                    <mxGeometry relative="1" as="geometry"/>
                </mxCell>
                <mxCell id="292" value="循迹前进" style="whiteSpace=wrap;html=1;fontColor=#000000;rounded=1;strokeWidth=1;" parent="1" vertex="1">
                    <mxGeometry x="1920" y="1760" width="120" height="60" as="geometry"/>
                </mxCell>
                <mxCell id="293" value="" style="edgeStyle=none;html=1;fontSize=12;fontColor=#000000;" parent="1" source="294" edge="1">
                    <mxGeometry relative="1" as="geometry">
                        <mxPoint x="1980" y="2040" as="targetPoint"/>
                    </mxGeometry>
                </mxCell>
                <mxCell id="294" value="到远部右上病房停止" style="whiteSpace=wrap;html=1;fontColor=#000000;rounded=1;strokeWidth=1;" parent="1" vertex="1">
                    <mxGeometry x="1920" y="1900" width="120" height="60" as="geometry"/>
                </mxCell>
                <mxCell id="302" value="" style="edgeStyle=none;html=1;fontSize=12;fontColor=#000000;" parent="1" source="303" target="305" edge="1">
                    <mxGeometry relative="1" as="geometry"/>
                </mxCell>
                <mxCell id="303" value="右转" style="whiteSpace=wrap;html=1;fontColor=#000000;rounded=1;strokeWidth=1;" parent="1" vertex="1">
                    <mxGeometry x="1920" y="2180" width="120" height="60" as="geometry"/>
                </mxCell>
                <mxCell id="304" value="" style="edgeStyle=none;html=1;fontSize=12;fontColor=#000000;" parent="1" source="305" target="314" edge="1">
                    <mxGeometry relative="1" as="geometry"/>
                </mxCell>
                <mxCell id="305" value="循迹前进" style="whiteSpace=wrap;html=1;fontColor=#000000;rounded=1;strokeWidth=1;" parent="1" vertex="1">
                    <mxGeometry x="1920" y="2320" width="120" height="60" as="geometry"/>
                </mxCell>
                <mxCell id="311" value="" style="edgeStyle=none;html=1;fontSize=12;fontColor=#000000;" parent="1" target="303" edge="1">
                    <mxGeometry relative="1" as="geometry">
                        <mxPoint x="1980" y="2100" as="sourcePoint"/>
                    </mxGeometry>
                </mxCell>
                <mxCell id="313" value="" style="edgeStyle=none;html=1;fontSize=12;fontColor=#000000;" parent="1" source="314" edge="1">
                    <mxGeometry relative="1" as="geometry">
                        <mxPoint x="1980" y="2600" as="targetPoint"/>
                    </mxGeometry>
                </mxCell>
                <mxCell id="314" value="左转" style="whiteSpace=wrap;html=1;fontColor=#000000;rounded=1;strokeWidth=1;" parent="1" vertex="1">
                    <mxGeometry x="1920" y="2460" width="120" height="60" as="geometry"/>
                </mxCell>
                <mxCell id="317" value="" style="edgeStyle=none;html=1;fontSize=12;fontColor=#000000;" parent="1" source="318" target="320" edge="1">
                    <mxGeometry relative="1" as="geometry"/>
                </mxCell>
                <mxCell id="318" value="右转" style="rounded=1;whiteSpace=wrap;html=1;strokeWidth=1;fontSize=12;fontColor=#000000;" parent="1" vertex="1">
                    <mxGeometry x="2240" y="1620" width="120" height="60" as="geometry"/>
                </mxCell>
                <mxCell id="319" value="" style="edgeStyle=none;html=1;fontSize=12;fontColor=#000000;" parent="1" source="320" target="322" edge="1">
                    <mxGeometry relative="1" as="geometry"/>
                </mxCell>
                <mxCell id="320" value="循迹前进" style="whiteSpace=wrap;html=1;fontColor=#000000;rounded=1;strokeWidth=1;" parent="1" vertex="1">
                    <mxGeometry x="2240" y="1760" width="120" height="60" as="geometry"/>
                </mxCell>
                <mxCell id="321" value="" style="edgeStyle=none;html=1;fontSize=12;fontColor=#000000;" parent="1" source="322" edge="1">
                    <mxGeometry relative="1" as="geometry">
                        <mxPoint x="2300" y="2040" as="targetPoint"/>
                    </mxGeometry>
                </mxCell>
                <mxCell id="322" value="到远部右下病房停止" style="whiteSpace=wrap;html=1;fontColor=#000000;rounded=1;strokeWidth=1;" parent="1" vertex="1">
                    <mxGeometry x="2240" y="1900" width="120" height="60" as="geometry"/>
                </mxCell>
                <mxCell id="330" value="" style="edgeStyle=none;html=1;fontSize=12;fontColor=#000000;" parent="1" source="331" target="333" edge="1">
                    <mxGeometry relative="1" as="geometry"/>
                </mxCell>
                <mxCell id="331" value="左转" style="whiteSpace=wrap;html=1;fontColor=#000000;rounded=1;strokeWidth=1;" parent="1" vertex="1">
                    <mxGeometry x="2240" y="2180" width="120" height="60" as="geometry"/>
                </mxCell>
                <mxCell id="332" value="" style="edgeStyle=none;html=1;fontSize=12;fontColor=#000000;" parent="1" source="333" target="342" edge="1">
                    <mxGeometry relative="1" as="geometry"/>
                </mxCell>
                <mxCell id="333" value="循迹前进" style="whiteSpace=wrap;html=1;fontColor=#000000;rounded=1;strokeWidth=1;" parent="1" vertex="1">
                    <mxGeometry x="2240" y="2320" width="120" height="60" as="geometry"/>
                </mxCell>
                <mxCell id="339" value="" style="edgeStyle=none;html=1;fontSize=12;fontColor=#000000;" parent="1" target="331" edge="1">
                    <mxGeometry relative="1" as="geometry">
                        <mxPoint x="2300" y="2100" as="sourcePoint"/>
                    </mxGeometry>
                </mxCell>
                <mxCell id="341" value="" style="edgeStyle=none;html=1;fontSize=12;fontColor=#000000;" parent="1" source="342" edge="1">
                    <mxGeometry relative="1" as="geometry">
                        <mxPoint x="2300" y="2600" as="targetPoint"/>
                    </mxGeometry>
                </mxCell>
                <mxCell id="342" value="左转" style="whiteSpace=wrap;html=1;fontColor=#000000;rounded=1;strokeWidth=1;" parent="1" vertex="1">
                    <mxGeometry x="2240" y="2460" width="120" height="60" as="geometry"/>
                </mxCell>
                <mxCell id="345" value="" style="edgeStyle=none;html=1;fontSize=12;fontColor=#000000;" parent="1" source="346" target="349" edge="1">
                    <mxGeometry relative="1" as="geometry"/>
                </mxCell>
                <mxCell id="346" value="开启红色LED" style="whiteSpace=wrap;html=1;fontColor=#000000;rounded=1;strokeWidth=1;" parent="1" vertex="1">
                    <mxGeometry x="1560" y="280" width="120" height="60" as="geometry"/>
                </mxCell>
                <mxCell id="347" value="" style="edgeStyle=none;html=1;fontSize=12;fontColor=#000000;exitX=1;exitY=0.5;exitDx=0;exitDy=0;" parent="1" source="349" edge="1">
                    <mxGeometry relative="1" as="geometry">
                        <mxPoint x="1620" y="380" as="targetPoint"/>
                        <Array as="points">
                            <mxPoint x="1730" y="450"/>
                            <mxPoint x="1730" y="380"/>
                        </Array>
                    </mxGeometry>
                </mxCell>
                <mxCell id="348" value="" style="edgeStyle=none;html=1;fontSize=12;fontColor=#000000;entryX=0.5;entryY=0;entryDx=0;entryDy=0;" parent="1" source="349" target="351" edge="1">
                    <mxGeometry relative="1" as="geometry"/>
                </mxCell>
                <mxCell id="349" value="接收红外信息" style="whiteSpace=wrap;html=1;fontColor=#000000;rounded=1;strokeWidth=1;" parent="1" vertex="1">
                    <mxGeometry x="1560" y="420" width="120" height="60" as="geometry"/>
                </mxCell>
                <mxCell id="350" value="" style="edgeStyle=none;html=1;fontSize=12;fontColor=#000000;entryX=0.5;entryY=0;entryDx=0;entryDy=0;" parent="1" source="351" target="353" edge="1">
                    <mxGeometry relative="1" as="geometry">
                        <mxPoint x="1619.9999999999998" y="700" as="targetPoint"/>
                    </mxGeometry>
                </mxCell>
                <mxCell id="351" value="关闭红色LED" style="whiteSpace=wrap;html=1;fontColor=#000000;rounded=1;strokeWidth=1;" parent="1" vertex="1">
                    <mxGeometry x="1560" y="560" width="120" height="60" as="geometry"/>
                </mxCell>
                <mxCell id="352" value="Y" style="text;html=1;strokeColor=none;fillColor=none;align=center;verticalAlign=middle;whiteSpace=wrap;rounded=0;" parent="1" vertex="1">
                    <mxGeometry x="1600" y="510" width="60" height="30" as="geometry"/>
                </mxCell>
                <mxCell id="353" value="转180度" style="whiteSpace=wrap;html=1;fontColor=#000000;rounded=1;strokeWidth=1;" parent="1" vertex="1">
                    <mxGeometry x="1560" y="700" width="120" height="60" as="geometry"/>
                </mxCell>
                <mxCell id="354" value="N" style="text;html=1;strokeColor=none;fillColor=none;align=center;verticalAlign=middle;whiteSpace=wrap;rounded=0;rotation=0;" parent="1" vertex="1">
                    <mxGeometry x="1690" y="400" width="60" height="30" as="geometry"/>
                </mxCell>
                <mxCell id="358" value="病房检测函数" style="text;html=1;align=center;verticalAlign=middle;whiteSpace=wrap;rounded=0;strokeWidth=1;fontColor=#000000;fontSize=24;" parent="1" vertex="1">
                    <mxGeometry x="1480" y="200" width="280" height="80" as="geometry"/>
                </mxCell>
                <mxCell id="359" value="病房检测函数" style="rounded=1;whiteSpace=wrap;html=1;strokeWidth=1;fontSize=12;fillColor=#d5e8d4;strokeColor=#82b366;" parent="1" vertex="1">
                    <mxGeometry x="160" y="1760" width="440" height="60" as="geometry"/>
                </mxCell>
                <mxCell id="362" value="" style="edgeStyle=none;html=1;fontSize=12;fontColor=#000000;" parent="1" target="363" edge="1">
                    <mxGeometry relative="1" as="geometry">
                        <mxPoint x="1620" y="760" as="sourcePoint"/>
                    </mxGeometry>
                </mxCell>
                <mxCell id="363" value="循迹前进" style="whiteSpace=wrap;html=1;fontColor=#000000;rounded=1;strokeWidth=1;" parent="1" vertex="1">
                    <mxGeometry x="1560" y="840" width="120" height="60" as="geometry"/>
                </mxCell>
                <mxCell id="364" value="" style="edgeStyle=none;html=1;fontSize=12;fontColor=#000000;" parent="1" source="365" target="367" edge="1">
                    <mxGeometry relative="1" as="geometry"/>
                </mxCell>
                <mxCell id="365" value="循迹前进" style="whiteSpace=wrap;html=1;fontColor=#000000;rounded=1;strokeWidth=1;" parent="1" vertex="1">
                    <mxGeometry x="1880" y="280" width="120" height="60" as="geometry"/>
                </mxCell>
                <mxCell id="366" value="" style="edgeStyle=none;html=1;fontSize=12;fontColor=#000000;" parent="1" source="367" target="368" edge="1">
                    <mxGeometry relative="1" as="geometry"/>
                </mxCell>
                <mxCell id="367" value="到药房停止" style="whiteSpace=wrap;html=1;fontColor=#000000;rounded=1;strokeWidth=1;" parent="1" vertex="1">
                    <mxGeometry x="1880" y="420" width="120" height="60" as="geometry"/>
                </mxCell>
                <mxCell id="368" value="开启绿色LED" style="whiteSpace=wrap;html=1;fontColor=#000000;rounded=1;strokeWidth=1;" parent="1" vertex="1">
                    <mxGeometry x="1880" y="560" width="120" height="60" as="geometry"/>
                </mxCell>
                <mxCell id="371" value="药房检测函数" style="text;html=1;align=center;verticalAlign=middle;whiteSpace=wrap;rounded=0;strokeWidth=1;fontColor=#000000;fontSize=24;" parent="1" vertex="1">
                    <mxGeometry x="1800" y="200" width="280" height="80" as="geometry"/>
                </mxCell>
                <mxCell id="373" value="" style="edgeStyle=none;html=1;fontSize=24;fontColor=#000000;" parent="1" source="374" target="376" edge="1">
                    <mxGeometry relative="1" as="geometry"/>
                </mxCell>
                <mxCell id="374" value="循迹前进" style="rounded=1;whiteSpace=wrap;html=1;strokeWidth=1;fontSize=12;fontColor=#000000;" parent="1" vertex="1">
                    <mxGeometry x="2200" y="280" width="120" height="60" as="geometry"/>
                </mxCell>
                <mxCell id="375" value="" style="edgeStyle=none;html=1;fontSize=24;fontColor=#000000;" parent="1" source="376" target="378" edge="1">
                    <mxGeometry relative="1" as="geometry"/>
                </mxCell>
                <mxCell id="376" value="当OpenMV发现数字&lt;br&gt;发送小车停止命令" style="whiteSpace=wrap;html=1;fontColor=#000000;rounded=1;strokeWidth=1;" parent="1" vertex="1">
                    <mxGeometry x="2200" y="420" width="120" height="60" as="geometry"/>
                </mxCell>
                <mxCell id="377" value="" style="edgeStyle=none;html=1;fontSize=24;fontColor=#000000;" parent="1" source="378" target="382" edge="1">
                    <mxGeometry relative="1" as="geometry"/>
                </mxCell>
                <mxCell id="378" value="接收图像信息" style="whiteSpace=wrap;html=1;fontColor=#000000;rounded=1;strokeWidth=1;" parent="1" vertex="1">
                    <mxGeometry x="2200" y="560" width="120" height="60" as="geometry"/>
                </mxCell>
                <mxCell id="379" value="" style="edgeStyle=none;html=1;" parent="1" edge="1">
                    <mxGeometry relative="1" as="geometry">
                        <mxPoint x="2320" y="590" as="sourcePoint"/>
                        <mxPoint x="2260" y="520" as="targetPoint"/>
                        <Array as="points">
                            <mxPoint x="2370" y="590"/>
                            <mxPoint x="2370" y="520"/>
                        </Array>
                    </mxGeometry>
                </mxCell>
                <mxCell id="380" value="N" style="text;html=1;strokeColor=none;fillColor=none;align=center;verticalAlign=middle;whiteSpace=wrap;rounded=0;" parent="1" vertex="1">
                    <mxGeometry x="2330" y="540" width="60" height="30" as="geometry"/>
                </mxCell>
                <mxCell id="381" value="Y" style="text;html=1;strokeColor=none;fillColor=none;align=center;verticalAlign=middle;whiteSpace=wrap;rounded=0;" parent="1" vertex="1">
                    <mxGeometry x="2240" y="650" width="60" height="30" as="geometry"/>
                </mxCell>
                <mxCell id="382" value="循迹前进" style="whiteSpace=wrap;html=1;fontColor=#000000;rounded=1;strokeWidth=1;" parent="1" vertex="1">
                    <mxGeometry x="2200" y="700" width="120" height="60" as="geometry"/>
                </mxCell>
                <mxCell id="384" value="数字检测函数" style="text;html=1;align=center;verticalAlign=middle;whiteSpace=wrap;rounded=0;strokeWidth=1;fontColor=#000000;fontSize=24;" parent="1" vertex="1">
                    <mxGeometry x="2120" y="200" width="280" height="80" as="geometry"/>
                </mxCell>
                <mxCell id="403" value="" style="edgeStyle=none;html=1;fontSize=12;fontColor=#000000;entryX=0.5;entryY=0;entryDx=0;entryDy=0;startArrow=none;exitX=0.5;exitY=1;exitDx=0;exitDy=0;" parent="1" source="389" target="200" edge="1">
                    <mxGeometry relative="1" as="geometry">
                        <mxPoint x="1820" y="1240" as="sourcePoint"/>
                        <mxPoint x="1819.9999999999995" y="1340" as="targetPoint"/>
                        <Array as="points">
                            <mxPoint x="1820" y="1300"/>
                            <mxPoint x="1500" y="1300"/>
                        </Array>
                    </mxGeometry>
                </mxCell>
                <mxCell id="405" value="" style="edgeStyle=none;html=1;fontSize=12;fontColor=#000000;entryX=0.5;entryY=0;entryDx=0;entryDy=0;" parent="1" target="276" edge="1">
                    <mxGeometry relative="1" as="geometry">
                        <mxPoint x="1820" y="1300" as="sourcePoint"/>
                        <mxPoint x="1819.9999999999995" y="1340" as="targetPoint"/>
                        <Array as="points">
                            <mxPoint x="2140" y="1300"/>
                        </Array>
                    </mxGeometry>
                </mxCell>
                <mxCell id="389" value="数字检测函数" style="rounded=1;whiteSpace=wrap;html=1;strokeWidth=1;fontSize=12;fillColor=#fff2cc;strokeColor=#d6b656;" parent="1" vertex="1">
                    <mxGeometry x="1760" y="1200" width="120" height="60" as="geometry"/>
                </mxCell>
                <mxCell id="390" value="数字检测函数" style="rounded=1;whiteSpace=wrap;html=1;strokeWidth=1;fontSize=12;fillColor=#fff2cc;strokeColor=#d6b656;" parent="1" vertex="1">
                    <mxGeometry x="1440" y="1480" width="760" height="60" as="geometry"/>
                </mxCell>
                <mxCell id="392" value="病房检测函数" style="rounded=1;whiteSpace=wrap;html=1;strokeWidth=1;fontSize=12;fillColor=#d5e8d4;strokeColor=#82b366;" parent="1" vertex="1">
                    <mxGeometry x="1280" y="2040" width="1080" height="60" as="geometry"/>
                </mxCell>
                <mxCell id="396" value="药房检测函数" style="whiteSpace=wrap;html=1;rounded=1;strokeWidth=1;fillColor=#ffe6cc;strokeColor=#d79b00;" parent="1" vertex="1">
                    <mxGeometry x="1280" y="2600" width="1080" height="70" as="geometry"/>
                </mxCell>
                <mxCell id="400" value="病房检测函数" style="rounded=1;whiteSpace=wrap;html=1;strokeWidth=1;fontSize=12;fillColor=#d5e8d4;strokeColor=#82b366;" parent="1" vertex="1">
                    <mxGeometry x="720" y="1760" width="440" height="60" as="geometry"/>
                </mxCell>
                <mxCell id="401" value="药房检测函数" style="whiteSpace=wrap;html=1;rounded=1;strokeWidth=1;fillColor=#ffe6cc;strokeColor=#d79b00;" parent="1" vertex="1">
                    <mxGeometry x="720" y="2040" width="440" height="60" as="geometry"/>
                </mxCell>
                <mxCell id="411" value="任务N（N=5/6/7/8）" style="text;html=1;strokeColor=none;fillColor=none;align=center;verticalAlign=middle;whiteSpace=wrap;rounded=0;strokeWidth=1;fontSize=24;fontColor=#000000;rotation=0;" parent="1" vertex="1">
                    <mxGeometry x="1240" y="1120" width="1160" height="80" as="geometry"/>
                </mxCell>
                <mxCell id="412" value="任务层" style="text;html=1;strokeColor=none;fillColor=none;align=center;verticalAlign=middle;whiteSpace=wrap;rounded=0;strokeWidth=1;fontSize=48;fontColor=#000000;" parent="1" vertex="1">
                    <mxGeometry x="80" y="1000" width="2360" height="80" as="geometry"/>
                </mxCell>
                <mxCell id="414" value="主函数" style="text;html=1;strokeColor=none;fillColor=none;align=center;verticalAlign=middle;whiteSpace=wrap;rounded=0;strokeWidth=1;fontSize=48;fontColor=#000000;" parent="1" vertex="1">
                    <mxGeometry x="1120" y="80" width="280" height="80" as="geometry"/>
                </mxCell>
                <mxCell id="415" value="通用层" style="text;html=1;strokeColor=none;fillColor=none;align=center;verticalAlign=middle;whiteSpace=wrap;rounded=0;strokeWidth=1;fontSize=48;fontColor=#000000;" parent="1" vertex="1">
                    <mxGeometry x="1440" y="80" width="990" height="80" as="geometry"/>
                </mxCell>
                <mxCell id="417" value="STM32" style="text;html=1;strokeColor=none;fillColor=none;align=center;verticalAlign=middle;whiteSpace=wrap;rounded=0;strokeWidth=1;fontSize=96;fontColor=#000000;" parent="1" vertex="1">
                    <mxGeometry x="80" y="80" width="1000" height="880" as="geometry"/>
                </mxCell>
                <mxCell id="439" value="" style="edgeStyle=none;html=1;" parent="1" source="418" target="438" edge="1">
                    <mxGeometry relative="1" as="geometry"/>
                </mxCell>
                <mxCell id="418" value="设备初始化" style="rounded=1;whiteSpace=wrap;html=1;" parent="1" vertex="1">
                    <mxGeometry x="2720" y="280" width="120" height="60" as="geometry"/>
                </mxCell>
                <mxCell id="430" value="" style="edgeStyle=none;html=1;" parent="1" source="421" target="429" edge="1">
                    <mxGeometry relative="1" as="geometry"/>
                </mxCell>
                <mxCell id="421" value="接收图像获取信息" style="whiteSpace=wrap;html=1;rounded=1;" parent="1" vertex="1">
                    <mxGeometry x="3080" y="400" width="120" height="60" as="geometry"/>
                </mxCell>
                <mxCell id="425" value="" style="edgeStyle=none;html=1;entryX=0.5;entryY=0;entryDx=0;entryDy=0;" parent="1" target="421" edge="1">
                    <mxGeometry relative="1" as="geometry">
                        <mxPoint x="3200" y="430" as="sourcePoint"/>
                        <mxPoint x="3140" y="360" as="targetPoint"/>
                        <Array as="points">
                            <mxPoint x="3250" y="430"/>
                            <mxPoint x="3250" y="360"/>
                            <mxPoint x="3140" y="360"/>
                        </Array>
                    </mxGeometry>
                </mxCell>
                <mxCell id="426" value="N" style="text;html=1;strokeColor=none;fillColor=none;align=center;verticalAlign=middle;whiteSpace=wrap;rounded=0;" parent="1" vertex="1">
                    <mxGeometry x="3210" y="380" width="60" height="30" as="geometry"/>
                </mxCell>
                <mxCell id="427" value="Y" style="text;html=1;strokeColor=none;fillColor=none;align=center;verticalAlign=middle;whiteSpace=wrap;rounded=0;" parent="1" vertex="1">
                    <mxGeometry x="3120" y="470" width="60" height="30" as="geometry"/>
                </mxCell>
                <mxCell id="435" value="" style="edgeStyle=none;html=1;" parent="1" source="429" target="434" edge="1">
                    <mxGeometry relative="1" as="geometry"/>
                </mxCell>
                <mxCell id="429" value="发送图像信息" style="whiteSpace=wrap;html=1;rounded=1;" parent="1" vertex="1">
                    <mxGeometry x="3080" y="540" width="120" height="60" as="geometry"/>
                </mxCell>
                <mxCell id="431" value="" style="edgeStyle=none;html=1;" parent="1" edge="1">
                    <mxGeometry relative="1" as="geometry">
                        <mxPoint x="3200" y="710" as="sourcePoint"/>
                        <mxPoint x="3140" y="500" as="targetPoint"/>
                        <Array as="points">
                            <mxPoint x="3250" y="710"/>
                            <mxPoint x="3250" y="501"/>
                        </Array>
                    </mxGeometry>
                </mxCell>
                <mxCell id="432" value="N" style="text;html=1;strokeColor=none;fillColor=none;align=center;verticalAlign=middle;whiteSpace=wrap;rounded=0;" parent="1" vertex="1">
                    <mxGeometry x="3200" y="685" width="60" height="30" as="geometry"/>
                </mxCell>
                <mxCell id="434" value="接收图像终止信息" style="whiteSpace=wrap;html=1;rounded=1;" parent="1" vertex="1">
                    <mxGeometry x="3080" y="680" width="120" height="60" as="geometry"/>
                </mxCell>
                <mxCell id="436" value="" style="whiteSpace=wrap;html=1;rounded=1;" parent="1" vertex="1">
                    <mxGeometry x="2720" y="560" width="120" height="60" as="geometry"/>
                </mxCell>
                <mxCell id="440" value="" style="edgeStyle=none;html=1;" parent="1" source="438" target="436" edge="1">
                    <mxGeometry relative="1" as="geometry"/>
                </mxCell>
                <mxCell id="438" value="任务检测函数" style="rounded=1;whiteSpace=wrap;html=1;fillColor=#f8cecc;strokeColor=#b85450;" parent="1" vertex="1">
                    <mxGeometry x="2720" y="420" width="120" height="60" as="geometry"/>
                </mxCell>
                <mxCell id="443" value="任务检测函数" style="text;html=1;align=center;verticalAlign=middle;whiteSpace=wrap;rounded=0;strokeWidth=1;fontColor=#000000;fontSize=24;" parent="1" vertex="1">
                    <mxGeometry x="3040" y="280" width="240" height="80" as="geometry"/>
                </mxCell>
            </root>
        </mxGraphModel>
    </diagram>
</mxfile>